<svg width="72" height="32" viewBox="0 0 72 32" fill="none" xmlns="http://www.w3.org/2000/svg">
<path d="M9.18782 27.1605C9.58025 27.2381 9.98901 27.2795 10.4115 27.2795V31.4441C9.71619 31.4441 9.03682 31.3757 8.37963 31.2456L9.18782 27.1605ZM12.4434 31.2456C11.7862 31.3756 11.1069 31.4441 10.4115 31.4441V27.2795C10.8341 27.2795 11.2428 27.2381 11.6353 27.1605L12.4434 31.2456ZM5.21435 24.5005C5.67163 25.1836 6.26056 25.7725 6.94359 26.2298L4.6268 29.6903C3.4914 28.9301 2.5139 27.9527 1.75377 26.8173L5.21435 24.5005ZM19.0693 26.8173C18.3091 27.9527 17.3316 28.9301 16.1962 29.6903L13.8795 26.2298C14.5625 25.7725 15.1515 25.1836 15.6087 24.5005L19.0693 26.8173ZM0 21.0326C0 20.3372 0.0683811 19.6579 0.198394 19.0007L4.28364 19.8089C4.20601 20.2013 4.16462 20.6101 4.16462 21.0326C4.16462 21.4551 4.20601 21.8639 4.28364 22.2563L0.198394 23.0644C0.0683889 22.4073 0 21.7279 0 21.0326ZM20.8231 21.0326C20.8231 21.7279 20.7546 22.4073 20.6246 23.0644L16.5394 22.2563C16.6171 21.8639 16.6585 21.4551 16.6585 21.0326C16.6585 20.6101 16.6171 20.2013 16.5394 19.8089L20.6246 19.0007C20.7546 19.6579 20.8231 20.3372 20.8231 21.0326ZM6.94359 15.8354C6.26056 16.2927 5.67163 16.8816 5.21435 17.5647L1.75377 15.2479C2.5139 14.1125 3.4914 13.135 4.6268 12.3749L6.94359 15.8354ZM16.1962 12.3749C17.3316 13.135 18.3091 14.1125 19.0693 15.2479L15.6087 17.5647C15.1515 16.8816 14.5625 16.2927 13.8795 15.8354L16.1962 12.3749ZM10.4115 10.6211C11.1069 10.6211 11.7862 10.6895 12.4434 10.8195L11.6353 14.9047C11.2428 14.8271 10.8341 14.7857 10.4115 14.7857C9.98901 14.7857 9.58025 14.8271 9.18782 14.9047L8.37963 10.8195C9.03682 10.6895 9.7162 10.6211 10.4115 10.6211Z" fill="#B0B0B0"/>
<path d="M51.3142 31.6264C50.6294 31.6264 50.0227 31.505 49.4939 31.2623C48.9652 31.0196 48.5491 30.6642 48.2458 30.1962C47.9511 29.7194 47.8037 29.143 47.8037 28.4669V28.1419H49.1949V28.4669C49.1949 29.1084 49.3856 29.5894 49.767 29.9101C50.157 30.2308 50.6728 30.3912 51.3142 30.3912C51.9643 30.3912 52.454 30.2568 52.7834 29.9881C53.1128 29.7108 53.2774 29.3554 53.2774 28.922C53.2774 28.636 53.1994 28.4019 53.0434 28.2199C52.8874 28.0379 52.6664 27.8949 52.3803 27.7909C52.0943 27.6782 51.7519 27.5742 51.3532 27.4788L50.8721 27.3618C50.2914 27.2231 49.7843 27.0541 49.3509 26.8547C48.9262 26.6467 48.5968 26.3737 48.3628 26.0356C48.1288 25.6976 48.0117 25.2642 48.0117 24.7355C48.0117 24.1981 48.1418 23.7387 48.4018 23.3573C48.6705 22.9759 49.0389 22.6812 49.5069 22.4732C49.975 22.2651 50.5254 22.1611 51.1582 22.1611C51.7909 22.1611 52.3543 22.2695 52.8484 22.4862C53.3511 22.7029 53.7455 23.0236 54.0315 23.4483C54.3176 23.873 54.4606 24.4061 54.4606 25.0475V25.5156H53.0694V25.0475C53.0694 24.6575 52.9871 24.3411 52.8224 24.0984C52.6664 23.8557 52.4453 23.678 52.1593 23.5653C51.8733 23.4526 51.5395 23.3963 51.1582 23.3963C50.6034 23.3963 50.17 23.5133 49.858 23.7473C49.5546 23.9727 49.4029 24.2891 49.4029 24.6965C49.4029 24.9738 49.4679 25.2035 49.5979 25.3855C49.7366 25.5589 49.936 25.7019 50.196 25.8146C50.4561 25.9273 50.7811 26.027 51.1712 26.1136L51.6522 26.2307C52.2416 26.3607 52.7617 26.5297 53.2124 26.7377C53.6632 26.9371 54.0185 27.2101 54.2786 27.5568C54.5386 27.9035 54.6686 28.3499 54.6686 28.896C54.6686 29.4421 54.5299 29.9188 54.2526 30.3262C53.9839 30.7336 53.5982 31.0543 53.0954 31.2883C52.5927 31.5137 51.9989 31.6264 51.3142 31.6264Z" fill="#B0B0B0"/>
<path d="M39.2607 31.4442V30.196H40.4829V23.5912H39.2607V22.343H43.8764C44.4224 22.343 44.8992 22.4384 45.3065 22.6291C45.7139 22.8111 46.0303 23.0754 46.2557 23.4222C46.4897 23.7602 46.6067 24.1633 46.6067 24.6313V24.7613C46.6067 25.1774 46.5287 25.5198 46.3727 25.7885C46.2167 26.0572 46.026 26.2652 45.8006 26.4125C45.5839 26.5599 45.3759 26.6639 45.1765 26.7246V26.9326C45.3759 26.9846 45.5883 27.0886 45.8136 27.2447C46.0476 27.392 46.2427 27.6 46.3987 27.8687C46.5634 28.1374 46.6457 28.4885 46.6457 28.9219V29.0519C46.6457 29.5546 46.5287 29.9837 46.2947 30.3391C46.0606 30.6944 45.7356 30.9675 45.3196 31.1582C44.9122 31.3488 44.4398 31.4442 43.9024 31.4442H39.2607ZM41.9001 30.17H43.7333C44.2014 30.17 44.5698 30.0573 44.8385 29.832C45.1072 29.6066 45.2415 29.2946 45.2415 28.8959V28.7788C45.2415 28.3801 45.1072 28.0681 44.8385 27.8427C44.5785 27.6174 44.2101 27.5047 43.7333 27.5047H41.9001V30.17ZM41.9001 26.2175H43.7333C44.1754 26.2175 44.5308 26.1092 44.7995 25.8925C45.0682 25.6671 45.2025 25.3637 45.2025 24.9824V24.8523C45.2025 24.471 45.0682 24.1719 44.7995 23.9552C44.5394 23.7299 44.1841 23.6172 43.7333 23.6172H41.9001V26.2175Z" fill="#B0B0B0"/>
<path d="M30.708 31.4442L33.3084 22.343H35.7787L38.366 31.4442H36.9228L36.3248 29.2989H32.7623L32.1642 31.4442H30.708ZM33.1133 27.9987H35.9737L34.6475 23.2141H34.4395L33.1133 27.9987Z" fill="#B0B0B0"/>
<path d="M24.3115 31.4442V22.343H25.7157V30.17H30.0973V31.4442H24.3115Z" fill="#B0B0B0"/>
<path d="M64.3418 19.763L66.9421 10.6619H69.4125L71.9998 19.763H70.5566L69.9585 17.6178H66.3961L65.798 19.763H64.3418ZM66.7471 16.3176H69.6075L68.2813 11.533H68.0733L66.7471 16.3176Z" fill="#B0B0B0"/>
<path d="M57.9463 19.763V10.6619H59.3505V18.4889H63.7321V19.763H57.9463Z" fill="#B0B0B0"/>
<path d="M52.6164 19.945C51.4982 19.945 50.6098 19.6329 49.951 19.0088C49.2923 18.3761 48.9629 17.466 48.9629 16.2785V14.1462C48.9629 12.9587 49.2923 12.0529 49.951 11.4289C50.6098 10.7961 51.4982 10.4797 52.6164 10.4797C53.7345 10.4797 54.623 10.7961 55.2817 11.4289C55.9492 12.0529 56.2829 12.9587 56.2829 14.1462V16.2785C56.2829 17.466 55.9492 18.3761 55.2817 19.0088C54.623 19.6329 53.7345 19.945 52.6164 19.945ZM52.6164 18.6838C53.3358 18.6838 53.8905 18.4758 54.2806 18.0597C54.6707 17.635 54.8657 17.0586 54.8657 16.3305V14.0942C54.8657 13.3661 54.6707 12.794 54.2806 12.378C53.8905 11.9533 53.3358 11.7409 52.6164 11.7409C51.9143 11.7409 51.3639 11.9533 50.9652 12.378C50.5664 12.794 50.3671 13.3661 50.3671 14.0942V16.3305C50.3671 17.0586 50.5664 17.635 50.9652 18.0597C51.3639 18.4758 51.9143 18.6838 52.6164 18.6838Z" fill="#B0B0B0"/>
<path d="M41.3633 19.763V10.6619H44.9778C45.5325 10.6619 46.0266 10.7745 46.46 10.9999C46.902 11.2166 47.2444 11.5286 47.4871 11.936C47.7385 12.3347 47.8641 12.8158 47.8641 13.3792V13.5482C47.8641 14.1116 47.7341 14.597 47.4741 15.0044C47.2227 15.4118 46.8804 15.7239 46.447 15.9405C46.0136 16.1572 45.5238 16.2656 44.9778 16.2656H42.7675V19.763H41.3633ZM42.7675 14.9914H44.8347C45.3288 14.9914 45.7232 14.8614 46.0179 14.6014C46.3126 14.3413 46.46 13.986 46.46 13.5352V13.4052C46.46 12.9458 46.3126 12.5861 46.0179 12.3261C45.7232 12.066 45.3288 11.936 44.8347 11.936H42.7675V14.9914Z" fill="#B0B0B0"/>
<path d="M36.072 19.9451C35.3526 19.9451 34.7329 19.815 34.2128 19.555C33.7014 19.295 33.3027 18.9223 33.0166 18.4369C32.7393 17.9428 32.6006 17.3447 32.6006 16.6426V10.6619H34.0178V16.6816C34.0178 17.3231 34.1955 17.8171 34.5508 18.1638C34.9062 18.5105 35.4133 18.6839 36.072 18.6839C36.7308 18.6839 37.2379 18.5105 37.5933 18.1638C37.9486 17.8171 38.1263 17.3231 38.1263 16.6816V10.6619H39.5305V16.6426C39.5305 17.3447 39.3918 17.9428 39.1145 18.4369C38.8371 18.9223 38.4384 19.295 37.9183 19.555C37.3982 19.815 36.7828 19.9451 36.072 19.9451Z" fill="#B0B0B0"/>
<path d="M27.6926 19.945C26.5831 19.945 25.7033 19.6329 25.0533 19.0088C24.4032 18.3761 24.0781 17.466 24.0781 16.2785V14.1462C24.0781 12.9587 24.4032 12.0529 25.0533 11.4289C25.7033 10.7961 26.5831 10.4797 27.6926 10.4797C28.7848 10.4797 29.6255 10.7831 30.2149 11.3899C30.813 11.9966 31.1121 12.8244 31.1121 13.8732V13.9512H29.7209V13.8342C29.7209 13.2188 29.5519 12.716 29.2138 12.326C28.8844 11.9359 28.3774 11.7409 27.6926 11.7409C26.9992 11.7409 26.4574 11.9533 26.0674 12.378C25.6773 12.794 25.4823 13.3748 25.4823 14.1202V16.3045C25.4823 17.0413 25.6773 17.622 26.0674 18.0467C26.4574 18.4714 26.9992 18.6838 27.6926 18.6838C28.3774 18.6838 28.8844 18.4888 29.2138 18.0987C29.5519 17.7 29.7209 17.1973 29.7209 16.5905V16.3695H31.1121V16.5515C31.1121 17.6003 30.813 18.4281 30.2149 19.0348C29.6255 19.6416 28.7848 19.945 27.6926 19.945Z" fill="#B0B0B0"/>
<path d="M27.7884 8.61957C27.6727 8.61957 27.5646 8.60865 27.4642 8.58682C27.3638 8.56499 27.2841 8.54097 27.2251 8.51477L27.3823 8.0006C27.581 8.06174 27.7578 8.08357 27.9129 8.0661C28.0679 8.05082 28.2054 7.98095 28.3255 7.85651C28.4456 7.73424 28.5526 7.54648 28.6464 7.29322L28.8298 6.78232L26.9795 1.70288H27.6116L29.1049 5.96359H29.1508L30.6442 1.70288H31.2762L29.1475 7.52901C29.058 7.77136 28.9477 7.97331 28.8167 8.13488C28.6857 8.29862 28.534 8.4198 28.3615 8.4984C28.1912 8.57918 28.0002 8.61957 27.7884 8.61957Z" fill="#B0B0B0"/>
<path d="M22.0283 6.73321V0.026123H22.6145V2.66246H22.6669C22.7324 2.51181 22.8263 2.35679 22.9486 2.19741C23.073 2.03803 23.2357 1.90485 23.4366 1.79787C23.6396 1.6887 23.895 1.63412 24.2029 1.63412C24.6155 1.63412 24.978 1.74329 25.2902 1.96162C25.6024 2.17776 25.8458 2.48124 26.0205 2.87205C26.1952 3.26068 26.2825 3.71371 26.2825 4.23116C26.2825 4.75078 26.1952 5.206 26.0205 5.59681C25.848 5.98762 25.6057 6.29219 25.2935 6.51052C24.9834 6.72885 24.6232 6.83801 24.2127 6.83801C23.9071 6.83801 23.6516 6.78343 23.4464 6.67427C23.2433 6.5651 23.0796 6.43083 22.9551 6.27145C22.8307 6.10988 22.7346 5.95269 22.6669 5.79986H22.5949V6.73321H22.0283ZM22.6047 4.22133C22.6047 4.62742 22.6648 4.98767 22.7848 5.30206C22.9071 5.61427 23.0818 5.8599 23.3088 6.03893C23.5381 6.21577 23.8154 6.3042 24.1407 6.3042C24.4747 6.3042 24.7575 6.2125 24.9889 6.0291C25.2203 5.84352 25.3961 5.59353 25.5162 5.27914C25.6362 4.96474 25.6963 4.61214 25.6963 4.22133C25.6963 3.83489 25.6362 3.48665 25.5162 3.17662C25.3983 2.86659 25.2236 2.62097 24.9922 2.43976C24.7607 2.25636 24.4769 2.16466 24.1407 2.16466C23.8132 2.16466 23.5348 2.25309 23.3056 2.42993C23.0785 2.6046 22.9049 2.84694 22.7848 3.15697C22.6648 3.46482 22.6047 3.8196 22.6047 4.22133Z" fill="#B0B0B0"/>
<path d="M17.9894 1.70274V2.21036H15.5889V1.70274H17.9894ZM16.3388 0.497559H16.9251V5.4198C16.9251 5.6294 16.9611 5.79424 17.0331 5.91432C17.1052 6.03222 17.1991 6.11628 17.3148 6.16649C17.4305 6.21452 17.5538 6.23854 17.6848 6.23854C17.7613 6.23854 17.8268 6.23417 17.8813 6.22544C17.9359 6.21452 17.984 6.20361 18.0254 6.19269L18.1499 6.71996C18.0931 6.74179 18.0233 6.76144 17.9403 6.77891C17.8573 6.79856 17.7547 6.80838 17.6324 6.80838C17.4185 6.80838 17.2122 6.76144 17.0135 6.66756C16.817 6.57368 16.6554 6.43395 16.5288 6.24837C16.4021 6.06279 16.3388 5.83245 16.3388 5.55735V0.497559Z" fill="#B0B0B0"/>
<path d="M14.4658 0.026123V6.73321H13.8828V0.026123H14.4658Z" fill="#B0B0B0"/>
<path d="M11.7547 6.73329V1.70297H12.341V6.73329H11.7547ZM12.0528 0.838387C11.9327 0.838387 11.8301 0.797996 11.7449 0.717214C11.6598 0.634249 11.6172 0.534908 11.6172 0.419193C11.6172 0.303479 11.6598 0.20523 11.7449 0.124448C11.8301 0.0414828 11.9327 0 12.0528 0C12.1728 0 12.2755 0.0414828 12.3606 0.124448C12.4458 0.20523 12.4883 0.303479 12.4883 0.419193C12.4883 0.534908 12.4458 0.634249 12.3606 0.717214C12.2755 0.797996 12.1728 0.838387 12.0528 0.838387Z" fill="#B0B0B0"/>
<path d="M9.62214 4.81081V1.70288H10.2051V6.7332H9.62214V5.89809H9.57629C9.4584 6.15572 9.27172 6.37077 9.01628 6.54325C8.76083 6.71355 8.44862 6.7987 8.07964 6.7987C7.75869 6.7987 7.47377 6.72883 7.22487 6.5891C6.97597 6.44719 6.78057 6.23977 6.63865 5.96686C6.49674 5.69395 6.42578 5.35881 6.42578 4.96145V1.70288H7.00872V4.92543C7.00872 5.31842 7.12444 5.635 7.35587 5.87516C7.5873 6.11314 7.88423 6.23213 8.24666 6.23213C8.47372 6.23213 8.69205 6.17755 8.90165 6.06839C9.11125 5.95922 9.28373 5.79984 9.4191 5.59024C9.55446 5.37846 9.62214 5.11865 9.62214 4.81081Z" fill="#B0B0B0"/>
<path d="M0.890625 6.73321V0.026123H1.47684V2.66246H1.52924C1.59474 2.51181 1.68862 2.35679 1.81089 2.19741C1.93534 2.03803 2.09799 1.90485 2.29886 1.79787C2.50191 1.6887 2.75735 1.63412 3.0652 1.63412C3.47784 1.63412 3.84027 1.74329 4.15249 1.96162C4.4647 2.17776 4.70814 2.48124 4.8828 2.87205C5.05747 3.26068 5.1448 3.71371 5.1448 4.23116C5.1448 4.75078 5.05747 5.206 4.8828 5.59681C4.71032 5.98762 4.46797 6.29219 4.15576 6.51052C3.84573 6.72885 3.48549 6.83801 3.07502 6.83801C2.76936 6.83801 2.51391 6.78343 2.30868 6.67427C2.10564 6.5651 1.94189 6.43083 1.81744 6.27145C1.69299 6.10988 1.59692 5.95269 1.52924 5.79986H1.45719V6.73321H0.890625ZM1.46702 4.22133C1.46702 4.62742 1.52706 4.98767 1.64714 5.30206C1.76941 5.61427 1.94407 5.8599 2.17113 6.03893C2.40038 6.21577 2.67766 6.3042 3.00297 6.3042C3.33702 6.3042 3.61976 6.2125 3.85119 6.0291C4.08262 5.84352 4.25838 5.59353 4.37846 5.27914C4.49854 4.96474 4.55858 4.61214 4.55858 4.22133C4.55858 3.83489 4.49854 3.48665 4.37846 3.17662C4.26056 2.86659 4.0859 2.62097 3.85446 2.43976C3.62303 2.25636 3.3392 2.16466 3.00297 2.16466C2.67548 2.16466 2.39711 2.25309 2.16786 2.42993C1.9408 2.6046 1.76722 2.84694 1.64714 3.15697C1.52706 3.46482 1.46702 3.8196 1.46702 4.22133Z" fill="#B0B0B0"/>
</svg>
