<svg width="1198" height="520" viewBox="0 0 1198 520" fill="none" xmlns="http://www.w3.org/2000/svg">
<g filter="url(#filter0_d_8_365)">
<rect x="4" width="512" height="512" fill="#6E56CF"/>
</g>
<path d="M176.232 344L152.68 164.8H186.216L203.624 320.448H208.232L230.76 164.8H289.128L311.656 320.448H316.264L333.672 164.8H367.208L343.656 344H285.288L262.248 184.768H257.64L234.6 344H176.232ZM392.92 344V217.024H424.664V231.36H429.272C431.149 226.24 434.221 222.485 438.488 220.096C442.925 217.707 448.045 216.512 453.848 216.512H469.208V245.184H453.336C445.144 245.184 438.403 247.403 433.112 251.84C427.821 256.107 425.176 262.763 425.176 271.808V344H392.92ZM530.844 347.584C521.799 347.584 513.692 346.048 506.524 342.976C499.356 339.733 493.639 335.125 489.372 329.152C485.276 323.008 483.228 315.584 483.228 306.88C483.228 298.176 485.276 290.923 489.372 285.12C493.639 279.147 499.441 274.709 506.78 271.808C514.289 268.736 522.823 267.2 532.38 267.2H567.196V260.032C567.196 254.059 565.319 249.195 561.564 245.44C557.809 241.515 551.836 239.552 543.644 239.552C535.623 239.552 529.649 241.429 525.724 245.184C521.799 248.768 519.239 253.461 518.044 259.264L488.348 249.28C490.396 242.795 493.639 236.907 498.076 231.616C502.684 226.155 508.743 221.803 516.252 218.56C523.932 215.147 533.233 213.44 544.156 213.44C560.881 213.44 574.108 217.621 583.836 225.984C593.564 234.347 598.428 246.464 598.428 262.336V309.696C598.428 314.816 600.817 317.376 605.596 317.376H615.836V344H594.332C588.017 344 582.812 342.464 578.716 339.392C574.62 336.32 572.572 332.224 572.572 327.104V326.848H567.708C567.025 328.896 565.489 331.627 563.1 335.04C560.711 338.283 556.956 341.184 551.836 343.744C546.716 346.304 539.719 347.584 530.844 347.584ZM536.476 321.472C545.521 321.472 552.86 318.997 558.492 314.048C564.295 308.928 567.196 302.187 567.196 293.824V291.264H534.684C528.711 291.264 524.017 292.544 520.604 295.104C517.191 297.664 515.484 301.248 515.484 305.856C515.484 310.464 517.276 314.219 520.86 317.12C524.444 320.021 529.649 321.472 536.476 321.472ZM639.42 395.2V217.024H671.164V232.384H675.772C678.673 227.435 683.196 223.083 689.34 219.328C695.484 215.403 704.273 213.44 715.708 213.44C725.948 213.44 735.42 216 744.124 221.12C752.828 226.069 759.825 233.408 765.116 243.136C770.407 252.864 773.052 264.64 773.052 278.464V282.56C773.052 296.384 770.407 308.16 765.116 317.888C759.825 327.616 752.828 335.04 744.124 340.16C735.42 345.109 725.948 347.584 715.708 347.584C708.028 347.584 701.543 346.645 696.252 344.768C691.132 343.061 686.951 340.843 683.708 338.112C680.636 335.211 678.161 332.309 676.284 329.408H671.676V395.2H639.42ZM705.98 319.424C716.049 319.424 724.327 316.267 730.812 309.952C737.468 303.467 740.796 294.08 740.796 281.792V279.232C740.796 266.944 737.468 257.643 730.812 251.328C724.156 244.843 715.879 241.6 705.98 241.6C696.081 241.6 687.804 244.843 681.148 251.328C674.492 257.643 671.164 266.944 671.164 279.232V281.792C671.164 294.08 674.492 303.467 681.148 309.952C687.804 316.267 696.081 319.424 705.98 319.424ZM802.67 395.2V217.024H834.414V232.384H839.022C841.923 227.435 846.446 223.083 852.59 219.328C858.734 215.403 867.523 213.44 878.958 213.44C889.198 213.44 898.67 216 907.374 221.12C916.078 226.069 923.075 233.408 928.366 243.136C933.657 252.864 936.302 264.64 936.302 278.464V282.56C936.302 296.384 933.657 308.16 928.366 317.888C923.075 327.616 916.078 335.04 907.374 340.16C898.67 345.109 889.198 347.584 878.958 347.584C871.278 347.584 864.793 346.645 859.502 344.768C854.382 343.061 850.201 340.843 846.958 338.112C843.886 335.211 841.411 332.309 839.534 329.408H834.926V395.2H802.67ZM869.23 319.424C879.299 319.424 887.577 316.267 894.062 309.952C900.718 303.467 904.046 294.08 904.046 281.792V279.232C904.046 266.944 900.718 257.643 894.062 251.328C887.406 244.843 879.129 241.6 869.23 241.6C859.331 241.6 851.054 244.843 844.398 251.328C837.742 257.643 834.414 266.944 834.414 279.232V281.792C834.414 294.08 837.742 303.467 844.398 309.952C851.054 316.267 859.331 319.424 869.23 319.424ZM1023.78 347.584C1011.15 347.584 999.968 344.939 990.24 339.648C980.683 334.187 973.173 326.592 967.712 316.864C962.421 306.965 959.776 295.36 959.776 282.048V278.976C959.776 265.664 962.421 254.144 967.712 244.416C973.003 234.517 980.427 226.923 989.984 221.632C999.541 216.171 1010.63 213.44 1023.26 213.44C1035.72 213.44 1046.56 216.256 1055.78 221.888C1064.99 227.349 1072.16 235.029 1077.28 244.928C1082.4 254.656 1084.96 266.005 1084.96 278.976V289.984H992.544C992.885 298.688 996.128 305.771 1002.27 311.232C1008.42 316.693 1015.93 319.424 1024.8 319.424C1033.85 319.424 1040.5 317.461 1044.77 313.536C1049.03 309.611 1052.28 305.259 1054.5 300.48L1080.86 314.304C1078.47 318.741 1074.98 323.605 1070.37 328.896C1065.93 334.016 1059.96 338.453 1052.45 342.208C1044.94 345.792 1035.38 347.584 1023.78 347.584ZM992.8 265.92H1052.19C1051.51 258.581 1048.52 252.693 1043.23 248.256C1038.11 243.819 1031.37 241.6 1023.01 241.6C1014.3 241.6 1007.39 243.819 1002.27 248.256C997.152 252.693 993.995 258.581 992.8 265.92ZM1113.67 344V217.024H1145.41V231.36H1150.02C1151.9 226.24 1154.97 222.485 1159.24 220.096C1163.68 217.707 1168.8 216.512 1174.6 216.512H1189.96V245.184H1174.09C1165.89 245.184 1159.15 247.403 1153.86 251.84C1148.57 256.107 1145.93 262.763 1145.93 271.808V344H1113.67Z" fill="#FAFAF9"/>
<path d="M145 376H375V388.8H145V376Z" fill="#FAFAF9"/>
<defs>
<filter id="filter0_d_8_365" x="0" y="0" width="520" height="520" filterUnits="userSpaceOnUse" color-interpolation-filters="sRGB">
<feFlood flood-opacity="0" result="BackgroundImageFix"/>
<feColorMatrix in="SourceAlpha" type="matrix" values="0 0 0 0 0 0 0 0 0 0 0 0 0 0 0 0 0 0 127 0" result="hardAlpha"/>
<feOffset dy="4"/>
<feGaussianBlur stdDeviation="2"/>
<feComposite in2="hardAlpha" operator="out"/>
<feColorMatrix type="matrix" values="0 0 0 0 0 0 0 0 0 0 0 0 0 0 0 0 0 0 0.25 0"/>
<feBlend mode="normal" in2="BackgroundImageFix" result="effect1_dropShadow_8_365"/>
<feBlend mode="normal" in="SourceGraphic" in2="effect1_dropShadow_8_365" result="shape"/>
</filter>
</defs>
</svg>
