<svg width="750" height="750" viewBox="0 0 750 750" fill="none" xmlns="http://www.w3.org/2000/svg">
<path d="M362.799 300L374.799 307L436.299 272L436.3 257.5L362.799 300Z" fill="white" fill-opacity="0.5"/>
<path d="M338.3 286L351.3 293.5L436.3 244L436.3 230L338.3 286Z" fill="white" fill-opacity="0.5"/>
<path d="M314.3 272L326.3 279L436.3 215.5L436.3 201.5L314.3 272Z" fill="white" fill-opacity="0.5"/>
<path d="M313.3 244L313.3 258.5L436.3 187L436.3 173L313.3 244Z" fill="white" fill-opacity="0.5"/>
<path d="M386.34 455.774L374.301 448.808L312.6 483.637L312.599 498.066L386.34 455.774Z" fill="white" fill-opacity="0.5"/>
<path d="M410.92 469.705L397.877 462.242L312.599 511.5L312.599 525.431L410.92 469.705Z" fill="white" fill-opacity="0.5"/>
<path d="M434.998 483.637L422.958 476.671L312.599 539.861L312.599 553.792L434.998 483.637Z" fill="white" fill-opacity="0.5"/>
<path d="M436.001 511.5L436.001 497.071L312.598 568.221L312.598 582.152L436.001 511.5Z" fill="white" fill-opacity="0.5"/>
<path d="M203.3 82H301.3V278.327L374.692 320.7L448.3 278.327V82H546.3V335L472.763 377.321L545.3 419V668H447.3L447.5 476L374.519 433.861L301.3 476V667H203.3V420L276.464 377.245L203.3 335V82Z" fill="white"/>
</svg>
