<svg width="32" height="32" viewBox="0 0 32 32" fill="none" xmlns="http://www.w3.org/2000/svg">
<path d="M19.6622 0.398713C22.4466 1.1152 24.7594 2.5759 26.9475 4.33972C25.9268 4.46668 24.9011 4.44093 23.9384 4.7543C22.8868 5.09652 21.9549 4.95677 20.9195 4.5351C14.2214 1.80746 7.1905 4.9834 4.52715 10.8423C3.40884 13.3024 3.04277 15.8814 3.6186 18.5592C3.66373 18.7691 3.70332 18.9703 3.89411 19.1664C4.23864 19.0403 4.4568 18.7372 4.70372 18.479C9.97635 12.9675 16.2755 9.14223 23.5278 6.86548C25.2619 6.32113 27.0265 6.16445 28.8242 6.25864C29.8585 6.31283 30.8173 7.05055 30.7697 7.97698C30.6856 9.60915 31.24 11.0889 31.5879 12.6242C32.6807 17.4474 31.5675 21.803 28.6383 25.6854C25.9137 29.2966 22.2084 31.3611 17.7547 31.8859C8.5427 32.9715 1.34063 26.1474 0.181346 18.3874C-1.12965 9.61188 4.85695 2.31218 12.019 0.473622C14.5218 -0.168878 17.0649 -0.121734 19.6622 0.398713ZM25.4212 24.3697C28.6159 20.5641 29.4786 16.3102 27.8587 11.5784C27.1626 9.54501 26.9042 9.42297 24.8071 9.96771C21.0154 10.9526 17.6597 12.8687 14.3379 14.8642C11.1498 16.7794 8.39189 19.2118 5.87659 21.9384C5.51787 22.3273 5.26132 22.6806 5.67399 23.2401C8.12434 26.5627 11.3771 28.4808 15.4932 28.6124C19.3562 28.7358 22.6959 27.3582 25.4212 24.3697Z" fill="#B0B0B0"/>
</svg>
